<svg xmlns="http://www.w3.org/2000/svg" xmlns:xlink="http://www.w3.org/1999/xlink" width="1080" zoomAndPan="magnify" viewBox="0 0 810 809.999993" height="1080" preserveAspectRatio="xMidYMid meet" version="1.0"><defs><clipPath id="826a3320ab"><path d="M 81 84.6875 L 729 84.6875 L 729 725.09375 L 81 725.09375 Z M 81 84.6875 " clip-rule="nonzero"/></clipPath></defs><g clip-path="url(#826a3320ab)"><path fill="#5E8D83" d="M 633.558594 245.429688 L 544.804688 194.207031 L 544.804688 296.65625 Z M 634.667969 438.71875 L 544.8125 386.851562 L 544.8125 404.25 L 634.667969 456.117188 Z M 544.8125 381.703125 L 634.667969 433.566406 L 634.667969 417.453125 L 544.8125 365.59375 Z M 634.667969 396.195312 L 544.8125 344.332031 L 544.8125 360.449219 L 634.667969 412.308594 Z M 634.667969 374.933594 L 544.8125 323.066406 L 544.8125 339.183594 L 634.667969 391.046875 Z M 634.667969 352.378906 C 604.710938 335.117188 574.761719 317.800781 544.8125 300.515625 L 544.8125 317.925781 L 634.667969 369.785156 Z M 589.742188 111.261719 C 605.46875 120.320312 621.1875 129.402344 636.902344 138.484375 L 636.902344 194.207031 L 541.46875 139.125 Z M 589.742188 164.414062 L 633.558594 139.125 L 589.742188 113.835938 L 545.921875 139.125 Z M 634.667969 141.054688 L 591.964844 165.699219 L 634.667969 190.347656 Z M 266.296875 289.886719 L 176.4375 238.023438 L 176.4375 254.136719 L 266.296875 306.003906 Z M 266.296875 268.628906 L 176.4375 216.761719 L 176.4375 232.878906 L 266.296875 284.738281 Z M 266.296875 247.363281 L 176.4375 195.496094 L 176.4375 211.617188 L 266.296875 263.480469 Z M 282.488281 235.449219 L 192.621094 183.578125 L 178.660156 191.632812 L 268.527344 243.503906 Z M 300.90625 224.816406 L 211.039062 172.949219 L 197.082031 181.003906 L 286.945312 232.871094 Z M 357.28125 192.28125 L 267.410156 140.410156 L 252.335938 149.109375 L 342.203125 200.980469 Z M 268.527344 307.9375 L 304.804688 328.871094 L 319.875 320.171875 L 268.527344 290.535156 Z M 283.042969 341.429688 L 268.527344 333.054688 L 268.527344 349.808594 Z M 268.527344 329.195312 L 286.386719 339.5 L 301.460938 330.800781 L 268.527344 311.792969 Z M 450.480469 331.121094 L 360.621094 279.257812 L 360.621094 297.941406 L 450.480469 349.808594 Z M 450.480469 309.863281 L 360.621094 257.996094 L 360.621094 276.683594 L 450.480469 328.550781 Z M 450.480469 288.601562 L 360.621094 236.734375 L 360.621094 255.421875 L 450.480469 307.289062 Z M 306.457031 330.46875 L 396.339844 382.347656 L 412.53125 373.007812 L 322.640625 321.125 Z M 375.691406 394.265625 L 285.820312 342.390625 L 269.640625 351.738281 L 359.507812 403.609375 Z M 288.046875 341.101562 L 377.921875 392.980469 L 394.109375 383.636719 L 304.226562 331.753906 Z M 266.296875 332.410156 L 176.4375 280.546875 L 176.4375 297.949219 L 266.296875 349.808594 Z M 176.4375 275.398438 L 266.296875 327.261719 L 266.296875 311.148438 L 176.4375 259.285156 Z M 319.320312 214.1875 L 229.457031 162.316406 L 215.496094 170.375 L 305.363281 222.242188 Z M 233.914062 159.742188 L 323.78125 211.609375 L 337.746094 203.554688 L 247.878906 151.683594 Z M 338.296875 309.542969 L 268.527344 269.273438 L 268.527344 286.675781 L 323.222656 318.238281 Z M 268.527344 265.414062 L 341.640625 307.613281 L 356.714844 298.90625 L 268.527344 248.007812 Z M 358.386719 236.089844 L 322.105469 215.148438 L 307.03125 223.847656 L 358.386719 253.492188 Z M 343.863281 202.59375 L 358.386719 210.972656 L 358.386719 194.210938 Z M 358.386719 214.828125 L 340.527344 204.519531 L 325.449219 213.21875 L 358.386719 232.230469 Z M 288.609375 234.480469 L 358.386719 274.753906 L 358.386719 257.351562 L 303.6875 225.777344 Z M 358.386719 278.609375 L 285.273438 236.40625 L 270.195312 245.109375 L 358.386719 296.011719 Z M 430.949219 362.375 L 341.066406 310.496094 L 324.871094 319.839844 L 414.757812 371.71875 Z M 343.296875 309.210938 L 433.175781 361.089844 L 449.371094 351.742188 L 359.503906 299.871094 Z M 450.480469 267.34375 L 360.621094 215.476562 L 360.621094 234.164062 L 450.480469 286.027344 Z M 360.621094 212.902344 L 450.480469 264.769531 L 450.480469 246.070312 L 360.621094 194.207031 Z M 361.730469 192.28125 L 451.597656 244.148438 L 541.46875 192.28125 L 451.597656 140.410156 Z M 130.386719 430.824219 C 130.386719 448.972656 130.359375 467.121094 130.390625 485.265625 L 82.117188 513.125 C 82.097656 476.40625 82.113281 439.6875 82.113281 402.96875 Z M 127.050781 484.621094 L 84.34375 459.972656 L 84.34375 509.269531 Z M 84.34375 457.402344 L 128.164062 482.695312 L 128.164062 432.109375 L 84.339844 406.820312 Z M 130.390625 216.925781 L 130.390625 273.941406 L 81 245.433594 Z M 128.15625 220.785156 L 85.453125 245.429688 L 128.15625 270.078125 Z M 359.503906 84.6875 C 375.605469 93.957031 391.691406 103.257812 407.777344 112.550781 C 391.6875 121.839844 375.585938 131.109375 359.503906 140.410156 C 343.425781 131.109375 327.320312 121.839844 311.234375 112.550781 Z M 359.503906 87.261719 L 315.683594 112.550781 L 359.503906 137.84375 L 403.324219 112.550781 Z M 358.390625 405.535156 L 268.527344 353.667969 L 268.527344 457.402344 L 358.390625 509.265625 Z M 450.488281 562.425781 L 450.488281 457.402344 L 541.464844 404.890625 L 451.59375 353.023438 C 421.246094 370.484375 390.960938 388.054688 360.621094 405.53125 L 360.621094 510.558594 Z M 452.714844 480.601562 L 452.714844 498 L 542.574219 446.132812 L 542.574219 428.734375 Z M 542.574219 406.824219 L 452.714844 458.691406 L 452.714844 476.742188 L 542.574219 424.875 Z M 452.714844 519.257812 L 542.574219 467.394531 L 542.574219 449.996094 L 452.714844 501.863281 Z M 452.714844 540.523438 L 542.574219 488.65625 L 542.574219 471.257812 L 452.714844 523.121094 Z M 542.574219 492.515625 L 452.710938 544.382812 L 452.710938 562.425781 L 542.574219 510.558594 Z M 251.21875 362.371094 L 251.222656 466.105469 L 266.304688 457.402344 L 266.300781 353.667969 Z M 232.796875 373 L 232.796875 476.742188 L 246.769531 468.671875 L 246.765625 364.941406 Z M 214.375 383.632812 L 214.375 487.371094 L 228.347656 479.308594 L 228.347656 375.570312 Z M 195.960938 394.261719 L 195.960938 498 L 209.929688 489.9375 L 209.925781 386.203125 Z M 176.4375 509.269531 L 191.515625 500.570312 L 191.507812 396.832031 L 176.4375 405.53125 Z M 283.042969 554.046875 L 193.183594 502.179688 L 177.550781 511.199219 L 267.414062 563.066406 Z M 196.527344 500.25 L 286.386719 552.117188 L 301.460938 543.414062 L 211.597656 491.546875 Z M 251.785156 468.355469 L 341.644531 520.21875 L 357.277344 511.199219 L 267.417969 459.332031 Z M 319.878906 532.785156 L 230.015625 480.914062 L 214.941406 489.621094 L 304.804688 541.484375 Z M 233.359375 478.988281 L 323.222656 530.855469 L 338.300781 522.148438 L 248.441406 470.285156 Z M 219.140625 590.925781 L 176.4375 566.285156 L 176.4375 615.578125 Z M 223.59375 590.929688 L 174.203125 619.4375 L 174.203125 562.425781 Z M 541.46875 617.503906 L 452.710938 566.277344 L 452.714844 668.730469 Z M 285.832031 680.003906 L 375.695312 628.132812 L 359.503906 618.789062 L 269.640625 670.660156 Z M 341.089844 711.894531 L 430.960938 660.03125 L 414.769531 650.683594 L 324.902344 702.554688 Z M 433.183594 661.316406 L 343.320312 713.183594 L 359.507812 722.527344 L 449.378906 670.660156 Z M 304.253906 690.636719 L 394.121094 638.769531 L 377.925781 629.421875 L 288.058594 681.289062 Z M 396.347656 640.054688 L 306.484375 691.921875 L 322.671875 701.269531 L 412.539062 649.398438 Z M 542.578125 194.207031 L 452.714844 246.070312 L 452.714844 351.097656 L 542.574219 402.960938 C 542.574219 333.371094 542.578125 263.796875 542.578125 194.207031 Z M 453.824219 564.359375 L 545.917969 617.507812 C 483.792969 653.382812 421.664062 689.265625 359.507812 725.09375 C 328.0625 706.96875 296.628906 688.8125 265.191406 670.660156 C 296.625 652.507812 328.085938 634.394531 359.503906 616.222656 L 450.488281 668.730469 C 450.488281 634.152344 450.507812 599.578125 450.488281 564.996094 C 420.144531 547.523438 389.824219 530.003906 359.503906 512.484375 L 267.414062 565.640625 C 236.3125 547.765625 205.261719 529.785156 174.199219 511.839844 L 174.199219 405.527344 L 81.003906 351.738281 L 174.199219 297.949219 L 174.199219 191.640625 C 205.273438 173.703125 236.316406 155.722656 267.417969 137.84375 L 359.507812 190.992188 L 451.59375 137.84375 C 513.78125 173.617188 575.871094 209.570312 638.011719 245.433594 L 545.917969 298.589844 L 635.785156 350.457031 L 728.992188 296.664062 C 728.992188 333.382812 729.011719 370.101562 728.988281 406.820312 C 698.292969 389.109375 667.605469 371.375 636.902344 353.667969 L 636.902344 459.980469 C 606.207031 442.261719 575.496094 424.558594 544.804688 406.824219 L 544.804688 511.839844 C 514.492188 529.355469 484.171875 546.882812 453.824219 564.359375 Z M 265.1875 351.738281 L 175.320312 299.871094 L 85.453125 351.738281 L 175.320312 403.609375 C 205.277344 386.320312 235.234375 369.027344 265.1875 351.738281 Z M 726.765625 300.511719 L 638.011719 351.738281 L 726.765625 402.964844 L 726.765625 300.511719 " fill-opacity=".5" fill-rule="nonzero"/></g></svg>