<svg xmlns="http://www.w3.org/2000/svg" xmlns:xlink="http://www.w3.org/1999/xlink" width="1080" zoomAndPan="magnify" viewBox="0 0 810 809.999993" height="1080" preserveAspectRatio="xMidYMid meet" version="1.0"><defs><clipPath id="f9af56ba2e"><path d="M 0.078125 720 L 56 720 L 56 775.785156 L 0.078125 775.785156 Z M 0.078125 720 " clip-rule="nonzero"/></clipPath><clipPath id="df6ed3c4bf"><path d="M 754 666 L 809.921875 666 L 809.921875 775.785156 L 754 775.785156 Z M 754 666 " clip-rule="nonzero"/></clipPath><clipPath id="9fa0315865"><path d="M 14 34.085938 L 42 34.085938 L 42 62 L 14 62 Z M 14 34.085938 " clip-rule="nonzero"/></clipPath></defs><path fill="#9999ff" d="M 0.96875 181.484375 L 55.742188 181.484375 L 55.742188 237.144531 L 0.078125 237.144531 L 0.078125 181.484375 Z M 53.945312 183.273438 L 1.875 183.273438 L 1.875 235.347656 L 53.945312 235.347656 L 53.945312 183.273438 " fill-opacity="1" fill-rule="evenodd"/><path fill="#9999ff" d="M 107.816406 397.839844 L 107.816406 343.078125 L 217.355469 343.078125 L 217.355469 398.738281 L 107.816406 398.738281 Z M 109.613281 344.875 L 109.613281 396.945312 L 215.550781 396.945312 L 215.550781 344.875 L 109.613281 344.875 " fill-opacity="1" fill-rule="evenodd"/><path fill="#9999ff" d="M 54.847656 235.347656 L 109.613281 235.347656 L 109.613281 344.875 L 53.945312 344.875 L 53.945312 235.347656 Z M 107.816406 237.144531 L 55.742188 237.144531 L 55.742188 343.078125 L 107.816406 343.078125 L 107.816406 237.144531 " fill-opacity="1" fill-rule="evenodd"/><path fill="#9999ff" d="M 54.847656 73.753906 L 109.613281 73.753906 L 109.613281 129.414062 L 53.945312 129.414062 L 53.945312 73.753906 Z M 107.816406 75.542969 L 55.742188 75.542969 L 55.742188 127.617188 L 107.816406 127.617188 L 107.816406 75.542969 " fill-opacity="1" fill-rule="evenodd"/><path fill="#9999ff" d="M 108.714844 127.617188 L 163.480469 127.617188 L 163.480469 237.144531 L 107.816406 237.144531 L 107.816406 127.617188 Z M 161.683594 129.414062 L 109.613281 129.414062 L 109.613281 235.347656 L 161.683594 235.347656 L 161.683594 129.414062 " fill-opacity="1" fill-rule="evenodd"/><path fill="#9999ff" d="M 216.457031 181.484375 L 271.222656 181.484375 L 271.222656 237.144531 L 215.550781 237.144531 L 215.550781 181.484375 Z M 269.425781 183.273438 L 217.355469 183.273438 L 217.355469 235.347656 L 269.425781 235.347656 L 269.425781 183.273438 " fill-opacity="1" fill-rule="evenodd"/><path fill="#9999ff" d="M 216.457031 289.210938 L 271.222656 289.210938 L 271.222656 344.875 L 215.550781 344.875 L 215.550781 289.210938 Z M 269.425781 291.007812 L 217.355469 291.007812 L 217.355469 343.078125 L 269.425781 343.078125 L 269.425781 291.007812 " fill-opacity="1" fill-rule="evenodd"/><path fill="#9999ff" d="M 270.324219 343.078125 L 325.089844 343.078125 L 325.089844 398.738281 L 269.425781 398.738281 L 269.425781 343.078125 Z M 323.300781 344.875 L 271.222656 344.875 L 271.222656 396.945312 L 323.300781 396.945312 L 323.300781 344.875 " fill-opacity="1" fill-rule="evenodd"/><path fill="#9999ff" d="M 324.191406 235.347656 L 378.964844 235.347656 L 378.964844 344.875 L 323.300781 344.875 L 323.300781 235.347656 Z M 377.167969 237.144531 L 325.089844 237.144531 L 325.089844 343.078125 L 377.167969 343.078125 L 377.167969 237.144531 " fill-opacity="1" fill-rule="evenodd"/><path fill="#9999ff" d="M 323.300781 451.707031 L 323.300781 396.945312 L 432.839844 396.945312 L 432.839844 452.601562 L 323.300781 452.601562 Z M 325.089844 398.738281 L 325.089844 450.808594 L 431.035156 450.808594 L 431.035156 398.738281 L 325.089844 398.738281 " fill-opacity="1" fill-rule="evenodd"/><path fill="#9999ff" d="M 0.96875 396.945312 L 55.742188 396.945312 L 55.742188 452.601562 L 0.078125 452.601562 L 0.078125 396.945312 Z M 53.945312 398.738281 L 1.875 398.738281 L 1.875 450.808594 L 53.945312 450.808594 L 53.945312 398.738281 " fill-opacity="1" fill-rule="evenodd"/><path fill="#9999ff" d="M 54.847656 450.808594 L 109.613281 450.808594 L 109.613281 506.460938 L 53.945312 506.460938 L 53.945312 450.808594 Z M 107.816406 452.601562 L 55.742188 452.601562 L 55.742188 504.671875 L 107.816406 504.671875 L 107.816406 452.601562 " fill-opacity="1" fill-rule="evenodd"/><path fill="#9999ff" d="M 108.714844 504.671875 L 163.480469 504.671875 L 163.480469 614.199219 L 107.816406 614.199219 L 107.816406 504.671875 Z M 161.683594 506.460938 L 109.613281 506.460938 L 109.613281 612.402344 L 161.683594 612.402344 L 161.683594 506.460938 " fill-opacity="1" fill-rule="evenodd"/><path fill="#9999ff" d="M 161.683594 505.5625 L 161.683594 450.808594 L 271.222656 450.808594 L 271.222656 506.460938 L 161.683594 506.460938 Z M 163.480469 452.601562 L 163.480469 504.671875 L 269.425781 504.671875 L 269.425781 452.601562 L 163.480469 452.601562 " fill-opacity="1" fill-rule="evenodd"/><path fill="#9999ff" d="M 270.324219 504.671875 L 325.089844 504.671875 L 325.089844 560.332031 L 269.425781 560.332031 L 269.425781 504.671875 Z M 323.300781 506.460938 L 271.222656 506.460938 L 271.222656 558.539062 L 323.300781 558.539062 L 323.300781 506.460938 " fill-opacity="1" fill-rule="evenodd"/><path fill="#9999ff" d="M 216.457031 558.539062 L 271.222656 558.539062 L 271.222656 668.054688 L 215.550781 668.054688 L 215.550781 558.539062 Z M 269.425781 560.332031 L 217.355469 560.332031 L 217.355469 666.273438 L 269.425781 666.273438 L 269.425781 560.332031 " fill-opacity="1" fill-rule="evenodd"/><path fill="#9999ff" d="M 324.191406 612.402344 L 378.964844 612.402344 L 378.964844 668.054688 L 323.300781 668.054688 L 323.300781 612.402344 Z M 377.167969 614.199219 L 325.089844 614.199219 L 325.089844 666.273438 L 377.167969 666.273438 L 377.167969 614.199219 " fill-opacity="1" fill-rule="evenodd"/><path fill="#9999ff" d="M 54.847656 612.402344 L 109.613281 612.402344 L 109.613281 668.054688 L 53.945312 668.054688 L 53.945312 612.402344 Z M 107.816406 614.199219 L 55.742188 614.199219 L 55.742188 666.273438 L 107.816406 666.273438 L 107.816406 614.199219 " fill-opacity="1" fill-rule="evenodd"/><path fill="#9999ff" d="M 108.714844 666.273438 L 163.480469 666.273438 L 163.480469 721.929688 L 107.816406 721.929688 L 107.816406 666.273438 Z M 161.683594 668.054688 L 109.613281 668.054688 L 109.613281 720.128906 L 161.683594 720.128906 L 161.683594 668.054688 " fill-opacity="1" fill-rule="evenodd"/><g clip-path="url(#f9af56ba2e)"><path fill="#9999ff" d="M 0.96875 720.128906 L 55.742188 720.128906 L 55.742188 775.785156 L 0.078125 775.785156 L 0.078125 720.128906 Z M 53.945312 721.929688 L 1.875 721.929688 L 1.875 773.996094 L 53.945312 773.996094 L 53.945312 721.929688 " fill-opacity="1" fill-rule="evenodd"/></g><path fill="#9999ff" d="M 484.910156 613.296875 L 484.910156 558.539062 L 594.449219 558.539062 L 594.449219 614.199219 L 484.910156 614.199219 Z M 486.691406 560.332031 L 486.691406 612.402344 L 592.644531 612.402344 L 592.644531 560.332031 L 486.691406 560.332031 " fill-opacity="1" fill-rule="evenodd"/><path fill="#9999ff" d="M 539.675781 343.078125 L 594.449219 343.078125 L 594.449219 452.601562 L 538.777344 452.601562 L 538.777344 343.078125 Z M 592.644531 344.875 L 540.566406 344.875 L 540.566406 450.808594 L 592.644531 450.808594 L 592.644531 344.875 " fill-opacity="1" fill-rule="evenodd"/><path fill="#9999ff" d="M 701.285156 612.402344 L 756.054688 612.402344 L 756.054688 668.054688 L 700.386719 668.054688 L 700.386719 612.402344 Z M 754.257812 614.199219 L 702.183594 614.199219 L 702.183594 666.273438 L 754.257812 666.273438 L 754.257812 614.199219 " fill-opacity="1" fill-rule="evenodd"/><path fill="#9999ff" d="M 593.542969 450.808594 L 648.316406 450.808594 L 648.316406 506.460938 L 592.644531 506.460938 L 592.644531 450.808594 Z M 646.511719 452.601562 L 594.449219 452.601562 L 594.449219 504.671875 L 646.511719 504.671875 L 646.511719 452.601562 " fill-opacity="1" fill-rule="evenodd"/><path fill="#9999ff" d="M 646.511719 559.4375 L 646.511719 504.671875 L 756.054688 504.671875 L 756.054688 560.332031 L 646.511719 560.332031 Z M 648.316406 506.460938 L 648.316406 558.539062 L 754.257812 558.539062 L 754.257812 506.460938 L 648.316406 506.460938 " fill-opacity="1" fill-rule="evenodd"/><path fill="#9999ff" d="M 593.542969 612.402344 L 648.316406 612.402344 L 648.316406 668.054688 L 592.644531 668.054688 L 592.644531 612.402344 Z M 646.511719 614.199219 L 594.449219 614.199219 L 594.449219 666.273438 L 646.511719 666.273438 L 646.511719 614.199219 " fill-opacity="1" fill-rule="evenodd"/><g clip-path="url(#df6ed3c4bf)"><path fill="#9999ff" d="M 755.15625 666.273438 L 809.921875 666.273438 L 809.921875 775.785156 L 754.257812 775.785156 L 754.257812 666.273438 Z M 808.125 668.054688 L 756.054688 668.054688 L 756.054688 773.996094 L 808.125 773.996094 L 808.125 668.054688 " fill-opacity="1" fill-rule="evenodd"/></g><path fill="#9999ff" d="M 647.417969 343.078125 L 702.183594 343.078125 L 702.183594 398.738281 L 646.511719 398.738281 L 646.511719 343.078125 Z M 700.386719 344.875 L 648.316406 344.875 L 648.316406 396.945312 L 700.386719 396.945312 L 700.386719 344.875 " fill-opacity="1" fill-rule="evenodd"/><path fill="#9999ff" d="M 701.285156 396.945312 L 756.054688 396.945312 L 756.054688 452.601562 L 700.386719 452.601562 L 700.386719 396.945312 Z M 754.257812 398.738281 L 702.183594 398.738281 L 702.183594 450.808594 L 754.257812 450.808594 L 754.257812 398.738281 " fill-opacity="1" fill-rule="evenodd"/><path fill="#9999ff" d="M 755.15625 289.210938 L 809.921875 289.210938 L 809.921875 344.875 L 754.257812 344.875 L 754.257812 289.210938 Z M 808.125 291.007812 L 756.054688 291.007812 L 756.054688 343.078125 L 808.125 343.078125 L 808.125 291.007812 " fill-opacity="1" fill-rule="evenodd"/><path fill="#9999ff" d="M 431.933594 450.808594 L 486.691406 450.808594 L 486.691406 506.460938 L 431.035156 506.460938 L 431.035156 450.808594 Z M 484.910156 452.601562 L 432.839844 452.601562 L 432.839844 504.671875 L 484.910156 504.671875 L 484.910156 452.601562 " fill-opacity="1" fill-rule="evenodd"/><path fill="#9999ff" d="M 378.058594 504.671875 L 432.839844 504.671875 L 432.839844 560.332031 L 377.167969 560.332031 L 377.167969 504.671875 Z M 431.035156 506.460938 L 378.964844 506.460938 L 378.964844 558.539062 L 431.035156 558.539062 L 431.035156 506.460938 " fill-opacity="1" fill-rule="evenodd"/><path fill="#9999ff" d="M 13.367188 517.070312 L 43.339844 517.070312 L 43.339844 547.929688 L 12.476562 547.929688 L 12.476562 517.070312 Z M 41.550781 518.863281 L 14.265625 518.863281 L 14.265625 546.140625 L 41.550781 546.140625 L 41.550781 518.863281 " fill-opacity="1" fill-rule="evenodd"/><path fill="#9999ff" d="M 73.304688 684.726562 L 91.160156 684.726562 L 91.160156 703.46875 L 72.40625 703.46875 L 72.40625 684.726562 Z M 89.363281 686.515625 L 74.203125 686.515625 L 74.203125 701.675781 L 89.363281 701.675781 L 89.363281 686.515625 " fill-opacity="1" fill-rule="evenodd"/><path fill="#9999ff" d="M 125.117188 413.339844 L 147.082031 413.339844 L 147.082031 436.207031 L 124.21875 436.207031 L 124.21875 413.339844 Z M 145.285156 415.136719 L 126.015625 415.136719 L 126.015625 434.410156 L 145.285156 434.410156 L 145.285156 415.136719 " fill-opacity="1" fill-rule="evenodd"/><path fill="#9999ff" d="M 181.710938 523.785156 L 198.234375 523.785156 L 198.234375 541.21875 L 180.804688 541.21875 L 180.804688 523.785156 Z M 196.4375 525.585938 L 182.601562 525.585938 L 182.601562 539.417969 L 196.4375 539.417969 L 196.4375 525.585938 " fill-opacity="1" fill-rule="evenodd"/><path fill="#9999ff" d="M 18.242188 252.613281 L 38.480469 252.613281 L 38.480469 273.742188 L 17.34375 273.742188 L 17.34375 252.613281 Z M 36.683594 254.410156 L 19.140625 254.410156 L 19.140625 271.945312 L 36.683594 271.945312 L 36.683594 254.410156 " fill-opacity="1" fill-rule="evenodd"/><path fill="#9999ff" d="M 177.472656 250.234375 L 202.460938 250.234375 L 202.460938 276.121094 L 176.578125 276.121094 L 176.578125 250.234375 Z M 200.664062 252.03125 L 178.371094 252.03125 L 178.371094 274.324219 L 200.664062 274.324219 L 200.664062 252.03125 " fill-opacity="1" fill-rule="evenodd"/><g clip-path="url(#9fa0315865)"><path fill="#9999ff" d="M 15.171875 34.082031 L 41.550781 34.082031 L 41.550781 61.355469 L 14.273438 61.355469 L 14.273438 34.082031 Z M 39.746094 35.878906 L 16.070312 35.878906 L 16.070312 59.558594 L 39.746094 59.558594 L 39.746094 35.878906 " fill-opacity="1" fill-rule="evenodd"/></g><path fill="#9999ff" d="M 289.222656 146.511719 L 306.191406 146.511719 L 306.191406 164.378906 L 288.324219 164.378906 L 288.324219 146.511719 Z M 304.394531 148.308594 L 290.121094 148.308594 L 290.121094 162.589844 L 304.394531 162.589844 L 304.394531 148.308594 " fill-opacity="1" fill-rule="evenodd"/><path fill="#9999ff" d="M 442.421875 353.566406 L 476.214844 353.566406 L 476.214844 388.25 L 441.53125 388.25 L 441.53125 353.566406 Z M 474.417969 355.359375 L 443.320312 355.359375 L 443.320312 386.457031 L 474.417969 386.457031 L 474.417969 355.359375 " fill-opacity="1" fill-rule="evenodd"/><path fill="#9999ff" d="M 397.484375 308.632812 L 413.414062 308.632812 L 413.414062 325.453125 L 396.585938 325.453125 L 396.585938 308.632812 Z M 411.617188 310.429688 L 398.382812 310.429688 L 398.382812 323.664062 L 411.617188 323.664062 L 411.617188 310.429688 " fill-opacity="1" fill-rule="evenodd"/><path fill="#9999ff" d="M 558.394531 523.390625 L 575.71875 523.390625 L 575.71875 541.609375 L 557.503906 541.609375 L 557.503906 523.390625 Z M 573.921875 525.1875 L 559.292969 525.1875 L 559.292969 539.816406 L 573.921875 539.816406 L 573.921875 525.1875 " fill-opacity="1" fill-rule="evenodd"/><path fill="#9999ff" d="M 614.351562 310.011719 L 627.503906 310.011719 L 627.503906 324.066406 L 613.453125 324.066406 L 613.453125 310.011719 Z M 625.714844 311.808594 L 615.25 311.808594 L 615.25 322.269531 L 625.714844 322.269531 L 625.714844 311.808594 " fill-opacity="1" fill-rule="evenodd"/><path fill="#9999ff" d="M 715.777344 249.839844 L 741.554688 249.839844 L 741.554688 276.519531 L 714.878906 276.519531 L 714.878906 249.839844 Z M 739.769531 251.636719 L 716.683594 251.636719 L 716.683594 274.722656 L 739.769531 274.722656 L 739.769531 251.636719 " fill-opacity="1" fill-rule="evenodd"/><path fill="#9999ff" d="M 769.742188 465.386719 L 795.339844 465.386719 L 795.339844 491.886719 L 768.84375 491.886719 L 768.84375 465.386719 Z M 793.542969 467.1875 L 770.632812 467.1875 L 770.632812 490.089844 L 793.542969 490.089844 L 793.542969 467.1875 " fill-opacity="1" fill-rule="evenodd"/><path fill="#9999ff" d="M 774.886719 362.804688 L 790.195312 362.804688 L 790.195312 379.003906 L 773.988281 379.003906 L 773.988281 362.804688 Z M 788.398438 364.601562 L 775.789062 364.601562 L 775.789062 377.214844 L 788.398438 377.214844 L 788.398438 364.601562 " fill-opacity="1" fill-rule="evenodd"/><path fill="#9999ff" d="M 774.652344 578.03125 L 790.4375 578.03125 L 790.4375 594.707031 L 773.746094 594.707031 L 773.746094 578.03125 Z M 788.632812 579.824219 L 775.550781 579.824219 L 775.550781 592.910156 L 788.632812 592.910156 L 788.632812 579.824219 " fill-opacity="1" fill-rule="evenodd"/><path fill="#9999ff" d="M 668.363281 417.886719 L 681.234375 417.886719 L 681.234375 431.648438 L 667.472656 431.648438 L 667.472656 417.886719 Z M 679.4375 419.683594 L 669.257812 419.683594 L 669.257812 429.855469 L 679.4375 429.855469 L 679.4375 419.683594 " fill-opacity="1" fill-rule="evenodd"/><path fill="#9999ff" d="M 660.917969 679.773438 L 688.679688 679.773438 L 688.679688 708.429688 L 660.011719 708.429688 L 660.011719 679.773438 Z M 686.882812 681.5625 L 661.808594 681.5625 L 661.808594 706.628906 L 686.882812 706.628906 L 686.882812 681.5625 " fill-opacity="1" fill-rule="evenodd"/></svg>