<svg width="284" height="151" viewBox="0 0 284 151" fill="none" xmlns="http://www.w3.org/2000/svg">
<path d="M0 5V130.226C0 133.81 3.66968 136.225 7.05201 135.038C25.204 128.667 38.0654 130.142 55.7368 137.403C56.3496 137.654 57.0108 137.789 57.6733 137.789H89.6667C92.4281 137.789 94.6667 140.028 94.6667 142.789V145.363C94.6667 149.206 98.8234 151.613 102.157 149.698L121.736 138.454C122.494 138.018 123.353 137.789 124.227 137.789H279C281.761 137.789 284 135.551 284 132.789V5C284 2.23858 281.761 0 279 0H5C2.23858 0 0 2.23858 0 5Z" fill="url(#paint0_linear_822_1268)"/>
<defs>
<linearGradient id="paint0_linear_822_1268" x1="142" y1="0" x2="142" y2="154" gradientUnits="userSpaceOnUse">
<stop stop-color="#5E8D83"/>
<stop offset="0.989583" stop-color="#576E6A" stop-opacity="0.6"/>
</linearGradient>
</defs>
</svg>
